<?xml version="1.0" standalone="no"?>
<!DOCTYPE svg PUBLIC "-//W3C//DTD SVG 20010904//EN"
 "http://www.w3.org/TR/2001/REC-SVG-20010904/DTD/svg10.dtd">
<svg version="1.0" xmlns="http://www.w3.org/2000/svg"
 width="1269.000000pt" height="1269.000000pt" viewBox="0 0 1269.000000 1269.000000"
 preserveAspectRatio="xMidYMid meet">
<metadata>
Created by potrace 1.11, written by Peter Selinger 2001-2013
</metadata>
<g transform="translate(0.000000,1269.000000) scale(0.100000,-0.100000)"
fill="#000000" stroke="none">
<path d="M6019 12686 c-2 -2 -57 -7 -122 -10 -65 -4 -125 -9 -135 -10 -9 -2
-53 -7 -97 -11 -44 -4 -89 -9 -100 -10 -11 -2 -42 -6 -70 -10 -27 -3 -79 -11
-115 -16 -36 -6 -78 -13 -95 -15 -74 -12 -301 -58 -412 -84 -1020 -243 -1955
-732 -2758 -1443 -126 -111 -431 -420 -545 -553 -147 -169 -171 -198 -299
-368 -577 -765 -977 -1664 -1155 -2596 -35 -180 -68 -398 -81 -530 -4 -36 -8
-75 -10 -88 -13 -80 -20 -325 -19 -637 0 -337 5 -434 39 -730 26 -233 90 -575
155 -823 342 -1302 1062 -2432 2105 -3302 826 -688 1855 -1164 2930 -1354 122
-22 176 -30 337 -51 242 -32 407 -40 773 -40 337 0 481 6 645 25 47 6 105 12
130 15 25 3 63 8 85 11 736 105 1381 307 2020 634 270 138 383 204 651 383
364 243 624 456 955 787 195 194 317 329 458 506 56 71 108 136 114 144 7 8
51 69 98 135 428 596 743 1246 948 1955 30 104 103 403 115 470 7 42 13 69 26
135 15 75 57 370 65 455 4 41 9 82 10 91 19 101 28 811 12 1039 -16 238 -59
557 -108 803 -226 1127 -759 2180 -1536 3029 -1055 1153 -2466 1868 -4013
2033 -80 8 -163 18 -185 21 -47 6 -810 16 -816 10z"/>
</g>
</svg>
